<?xml version="1.0" standalone="no"?>
<!DOCTYPE svg PUBLIC "-//W3C//DTD SVG 20010904//EN"
 "http://www.w3.org/TR/2001/REC-SVG-20010904/DTD/svg10.dtd">
<svg version="1.0" xmlns="http://www.w3.org/2000/svg"
 width="91.000000pt" height="111.000000pt" viewBox="0 0 91.000000 111.000000"
 preserveAspectRatio="xMidYMid meet">

<g transform="translate(0.000000,111.000000) scale(0.100000,-0.100000)"
fill="#000000" stroke="none">
<path d="M360 1095 c-97 -22 -225 -87 -244 -124 -21 -39 -22 -115 -2 -108 8 3
70 20 138 38 68 17 149 43 180 56 65 29 61 30 148 -49 61 -56 62 -58 51 -89
-17 -50 -13 -115 10 -161 14 -28 19 -52 16 -75 -7 -42 8 -43 59 -3 49 40 86
38 95 -5 l5 -30 12 40 c23 76 32 171 22 225 -21 110 -78 169 -235 245 -105 51
-163 60 -255 40z"/>
<path d="M60 641 c-25 -4 -31 -9 -21 -15 10 -6 11 -24 6 -71 -6 -59 -4 -67 30
-136 36 -70 37 -74 21 -100 -23 -39 -21 -61 6 -57 21 3 22 -1 23 -57 0 -45 6
-69 23 -97 24 -39 91 -78 133 -78 50 0 129 52 235 154 l106 102 -7 70 c-6 66
-5 71 24 111 39 54 39 62 1 29 -17 -14 -63 -35 -103 -47 -84 -25 -102 -36 -87
-54 8 -10 4 -18 -16 -34 -19 -15 -25 -27 -21 -42 7 -26 -5 -22 -72 26 -28 20
-51 43 -51 51 0 18 -18 17 -50 -1 -33 -19 -74 -19 -91 1 -10 13 -9 28 5 87 10
40 23 85 29 101 9 25 8 31 -12 47 -24 19 -48 21 -111 10z m58 -52 c12 -19 11
-20 -10 -17 -12 2 -24 11 -26 21 -5 24 20 21 36 -4z m272 -317 c0 -5 -9 -17
-20 -27 -11 -10 -20 -24 -20 -32 0 -16 -34 -17 -59 -1 -15 9 -25 9 -46 0 -32
-15 -75 -16 -75 -1 0 30 22 49 58 50 20 0 55 4 77 8 55 12 85 13 85 3z"/>
<path d="M272 640 c-30 -13 -24 -30 16 -53 32 -19 32 -19 32 2 0 28 36 28 43
1 7 -27 57 -28 57 -2 0 44 -91 76 -148 52z"/>
</g>
</svg>
